<svg width="72" height="84" viewBox="0 0 72 84" xmlns="http://www.w3.org/2000/svg"><g fill="none"><path d="M2 22.149v39.703l34 19.833 34-19.833v-39.703l-34-19.833-34 19.833zm34-22.149l36 21v42l-36 21-36-21v-42l36-21z" fill="#308FFF" fill-rule="nonzero"/><path d="M27 36.167c.084-2.645.986-5.079 2.706-6.714 1.72-1.635 4.103-2.453 7.149-2.453 2.864 0 5.184.77 6.96 2.311 1.776 1.541 2.664 3.517 2.664 5.93 0 3.125-1.488 5.603-4.464 7.434-1.376.828-2.309 1.592-2.801 2.289-.491.698-.737 1.592-.737 2.682v1.354h-4.885l-.039-1.637c-.098-1.584.183-2.914.808-3.99s1.674-2.064 3.148-2.965c1.32-.828 2.232-1.595 2.737-2.3.505-.705.758-1.595.758-2.671 0-1.163-.407-2.118-1.221-2.867-.814-.749-1.881-1.123-3.201-1.123-1.348 0-2.436.4-3.264 1.199-.828.799-1.285 1.875-1.369 3.227l-4.949.293zm9.097 22.833c-.856 0-1.583-.3-2.179-.9-.597-.6-.895-1.327-.895-2.18 0-.853.298-1.576.895-2.169s1.323-.889 2.179-.889c.856 0 1.579.296 2.169.889.59.593.884 1.316.884 2.169s-.295 1.58-.884 2.18c-.59.6-1.313.9-2.169.9z" fill="#36DD96"/></g></svg>
