<svg width="84" height="84" viewBox="0 0 84 84" xmlns="http://www.w3.org/2000/svg"><g fill="none"><path id="Combined-Shape" fill="#308FFF" d="M53 2l-4 21-7-.705-7 .705-4-21 11-1z"/><path id="Combined-Shape" fill="#36DD96" d="M51 2l-4 21-5-1-5 1-4-21 9-1z"/><path id="Combined-Shape" fill="#308FFF" d="M82 53l-21-4 .705-7-.705-7 21-4 1 11z"/><path id="Combined-Shape" fill="#36DD96" d="M82 51l-21-4 1-5-1-5 21-4 1 9z"/><path id="Combined-Shape" fill="#308FFF" d="M2 53l21-4-.705-7 .705-7-21-4-1 11z"/><path id="Combined-Shape" fill="#36DD96" d="M2 51l21-4-1-5 1-5-21-4-1 9z"/><path id="Combined-Shape" fill="#308FFF" d="M53 82l-4-21-7 .705-7-.705-4 21 11 1z"/><path id="Combined-Shape" fill="#36DD96" d="M51 82l-4-21-5 1-5-1-4 21 9 1z"/><path d="M42 82c22.091 0 40-17.909 40-40s-17.909-40-40-40-40 17.909-40 40 17.909 40 40 40zm0 2c-23.196 0-42-18.804-42-42s18.804-42 42-42 42 18.804 42 42-18.804 42-42 42z" fill="#308FFF" fill-rule="nonzero"/><path d="M42 61c10.493 0 19-8.507 19-19s-8.507-19-19-19-19 8.507-19 19 8.507 19 19 19zm0 2c-11.598 0-21-9.402-21-21s9.402-21 21-21 21 9.402 21 21-9.402 21-21 21z" fill="#308FFF" fill-rule="nonzero"/></g></svg>
